<svg width="407.53624267578124px" height="129.4375427246094px" xmlns="http://www.w3.org/2000/svg" viewBox="46.23187866210938 10.281228637695307 407.53624267578124 129.4375427246094" style="background: rgba(0, 0, 0, 0);" preserveAspectRatio="xMidYMid"><defs><linearGradient id="editing-outline-gradient" x1="-0.41354545764260087" x2="1.4135454576426008" y1="0.09326335692419985" y2="0.9067366430758002"><stop offset="0" stop-color="#ee4208"></stop><stop offset="1" stop-color="#4139ff"></stop></linearGradient><filter id="editing-outline" x="-100%" y="-100%" width="300%" height="300%"><feMorphology in="SourceGraphic" operator="dilate" radius="1" result="outline"></feMorphology><feComposite operator="out" in="outline" in2="SourceAlpha"></feComposite></filter></defs><g filter="url(#editing-outline)"><g transform="translate(112.12031069397926, 111.80749893188477)"><path d="M57.47-9.73L57.47-9.73L57.47-9.73Q57.09-11.90 56.96-13.31L56.96-13.31L56.96-13.31Q56.83-14.72 56.83-16.22L56.83-16.22L56.83-16.22Q56.83-17.73 57.34-17.92L57.34-17.92L57.34-17.92Q57.41-17.92 57.54-17.92L57.54-17.92L57.54-17.92Q59.46-17.92 64.64-20.54L64.64-20.54L64.64-20.54Q69.82-23.17 76.45-27.62L76.45-27.62L76.45-27.62Q83.07-32.06 90.27-39.01L90.27-39.01L90.27-39.01Q97.47-45.95 102.14-53.06L102.14-53.06L102.14-53.06Q102.98-54.27 103.55-54.27L103.55-54.27L103.55-54.27Q103.74-54.27 103.97-54.08L103.97-54.08L103.97-54.08Q104.19-53.89 104.19-53.44L104.19-53.44L104.19-53.44Q104.19-52.99 103.74-52.22L103.74-52.22L103.74-52.22Q96.45-40.13 83.20-29.47L83.20-29.47L83.20-29.47Q69.95-18.82 61.06-16.58L61.06-16.58L61.06-16.58Q60.93-16.38 60.93-15.78L60.93-15.78L60.93-15.78Q60.93-15.17 61.06-13.76L61.06-13.76L61.06-13.76Q61.18-12.35 62.30-8.35L62.30-8.35L62.30-8.35Q63.42-4.35 64.90-0.96L64.90-0.96L64.90-0.96Q69.25 9.02 76.35 9.02L76.35 9.02L76.35 9.02Q80.45 9.02 84.19 7.30L84.19 7.30L84.19 7.30Q87.94 5.57 89.60 2.30L89.60 2.30L89.60 2.30Q89.98 1.41 90.56 1.41L90.56 1.41L90.56 1.41Q91.14 1.41 90.43 2.82L90.43 2.82L90.43 2.82Q88.70 6.34 84.38 9.06L84.38 9.06L84.38 9.06Q80.06 11.78 75.52 11.78L75.52 11.78L75.52 11.78Q70.98 11.78 66.94 8.45L66.94 8.45L66.94 8.45Q59.90 2.69 57.47-9.73ZM66.05-46.08L66.05-46.08Q66.75-47.30 68.19-49.06L68.19-49.06L68.19-49.06Q69.63-50.82 70.69-51.10L70.69-51.10L70.69-51.10Q71.74-51.39 72.74-51.39L72.74-51.39L72.74-51.39Q73.73-51.39 74.24-50.56L74.24-50.56L74.24-50.56Q74.75-49.73 74.75-48.90L74.75-48.90L74.75-48.90Q74.75-48.06 73.54-46.98L73.54-46.98L73.54-46.98Q71.49-45.12 67.07-44.67L67.07-44.67L67.07-44.67Q63.42-38.08 58.69-23.49L58.69-23.49L58.69-23.49Q56.96-18.18 54.05-12.19L54.05-12.19L54.05-12.19Q51.14-6.21 47.81-1.73L47.81-1.73L47.81-1.73Q44.48 2.75 39.01 6.18L39.01 6.18L39.01 6.18Q33.54 9.60 26.62 10.62L26.62 10.62L26.62 10.62Q24.38 10.94 21.66 10.94L21.66 10.94L21.66 10.94Q18.94 10.94 15.74 10.24L15.74 10.24L15.74 10.24Q4.03 7.55 0.64-1.28L0.64-1.28L0.64-1.28Q-0.38-3.97-0.38-6.62L-0.38-6.62L-0.38-6.62Q-0.38-9.28 0.35-12.10L0.35-12.10L0.35-12.10Q1.09-14.91 3.55-17.12L3.55-17.12L3.55-17.12Q6.02-19.33 7.62-19.52L7.62-19.52L7.62-19.52Q8.45-19.65 8.45-19.14L8.45-19.14L8.45-19.14Q8.45-18.82 8.06-18.62L8.06-18.62L8.06-18.62Q6.53-17.92 4.35-15.30L4.35-15.30L4.35-15.30Q1.54-11.84 1.54-6.72L1.54-6.72L1.54-6.72Q1.54-1.47 4.74 1.79L4.74 1.79L4.74 1.79Q8.64 5.89 13.95 6.91L13.95 6.91L13.95 6.91Q17.60 7.62 19.97 7.62L19.97 7.62L19.97 7.62Q22.34 7.62 24.13 7.10L24.13 7.10L24.13 7.10Q29.38 5.89 33.95 3.30L33.95 3.30L33.95 3.30Q38.53 0.70 41.63-2.21L41.63-2.21L41.63-2.21Q44.74-5.12 47.58-9.18L47.58-9.18L47.58-9.18Q50.43-13.25 52.06-16.32L52.06-16.32L52.06-16.32Q53.70-19.39 57.86-28.80L57.86-28.80L57.86-28.80Q62.02-38.21 65.15-44.54L65.15-44.54L65.15-44.54Q64.19-44.42 59.65-44.03L59.65-44.03L59.65-44.03Q51.26-43.33 46.59-41.98L46.59-41.98L46.59-41.98Q37.82-39.55 34.11-32.64L34.11-32.64L34.11-32.64Q32.32-29.31 32.32-26.18L32.32-26.18L32.32-26.18Q32.32-24.51 32.83-22.91L32.83-22.91L32.83-22.91Q34.24-18.62 38.40-18.62L38.40-18.62L38.40-18.62Q43.65-18.62 45.76-24.06L45.76-24.06L45.76-24.06Q46.78-26.69 46.78-28.42L46.78-28.42L46.78-28.42Q46.78-30.14 46.66-30.85L46.66-30.85L46.66-30.85Q46.53-31.55 46.85-31.55L46.85-31.55L46.85-31.55Q47.36-31.42 47.74-30.72L47.74-30.72L47.74-30.72Q48.32-29.38 48.32-27.55L48.32-27.55L48.32-27.55Q48.32-25.73 47.10-23.36L47.10-23.36L47.10-23.36Q45.18-19.33 41.73-18.05L41.73-18.05L41.73-18.05Q39.62-17.28 37.76-17.28L37.76-17.28L37.76-17.28Q34.56-17.28 32-19.58L32-19.58L32-19.58Q28.54-22.66 28.54-27.58L28.54-27.58L28.54-27.58Q28.54-34.56 35.07-39.30L35.07-39.30L35.07-39.30Q41.09-43.78 52.48-44.99L52.48-44.99L52.48-44.99Q55.94-45.38 60.38-45.66L60.38-45.66L60.38-45.66Q64.83-45.95 66.05-46.08L66.05-46.08ZM72.77-48.90L72.77-48.90L72.77-48.90Q72.77-49.60 72.19-49.60L72.19-49.60L72.19-49.60Q71.49-49.60 70.75-48.99L70.75-48.99L70.75-48.99Q70.02-48.38 68.22-46.27L68.22-46.27L68.22-46.27Q70.08-46.53 71.04-47.04L71.04-47.04L71.04-47.04Q72.77-47.87 72.77-48.90ZM79.68-9.86L79.68-9.86L79.68-9.86Q78.78-7.68 78.78-4.99L78.78-4.99L78.78-4.99Q78.78-3.20 79.58-2.14L79.58-2.14L79.58-2.14Q80.38-1.09 81.86-1.09L81.86-1.09L81.86-1.09Q87.68-1.09 92.42-12.03L92.42-12.03L92.42-12.03Q92.86-13.06 93.50-12.93L93.50-12.93L93.50-12.93Q93.76-12.86 93.76-12.61L93.76-12.61L93.76-12.61Q93.76-12.35 92.32-9.25L92.32-9.25L92.32-9.25Q90.88-6.14 89.41-4.22L89.41-4.22L89.41-4.22Q86.14 0.26 81.34 0.26L81.34 0.26L81.34 0.26Q78.78 0.26 76.99-1.41L76.99-1.41L76.99-1.41Q75.20-3.07 75.20-5.95L75.20-5.95L75.20-5.95Q75.20-8.83 76.58-12.06L76.58-12.06L76.58-12.06Q77.95-15.30 80.32-18.08L80.32-18.08L80.32-18.08Q82.69-20.86 85.76-22.14L85.76-22.14L85.76-22.14Q87.23-22.78 88.58-22.78L88.58-22.78L88.58-22.78Q89.92-22.78 91.07-22.02L91.07-22.02L91.07-22.02Q92.16-21.12 92.16-20.03L92.16-20.03L92.16-20.03Q92.16-16.19 87.55-12.67L87.55-12.67L87.55-12.67Q86.14-11.58 83.58-10.72L83.58-10.72L83.58-10.72Q81.02-9.86 79.68-9.86ZM90.43-20.10L90.43-20.10L90.43-20.10Q90.43-21.38 89.41-21.38L89.41-21.38L89.41-21.38Q87.62-21.38 83.97-16.96L83.97-16.96L83.97-16.96Q81.79-14.27 80.13-10.94L80.13-10.94L80.13-10.94Q81.22-10.94 83.30-11.71L83.30-11.71L83.30-11.71Q85.38-12.48 86.91-13.76L86.91-13.76L86.91-13.76Q90.43-16.77 90.43-20.10ZM91.01-5.12L91.01-5.12L91.01-5.12Q91.01-10.43 96.13-22.91L96.13-22.91L92.80-22.91L92.80-22.91Q92.48-22.91 92.38-23.26L92.38-23.26L92.38-23.26Q92.29-23.62 92.45-23.97L92.45-23.97L92.45-23.97Q92.61-24.32 92.93-24.32L92.93-24.32L96.77-24.32L96.77-24.32Q99.07-29.38 101.06-32.77L101.06-32.77L101.06-32.77Q103.04-36.16 104.70-37.34L104.70-37.34L104.70-37.34Q106.37-38.53 107.10-38.53L107.10-38.53L107.10-38.53Q107.84-38.53 108.16-38.40L108.16-38.40L108.16-38.40Q109.63-37.70 109.63-35.49L109.63-35.49L109.63-35.49Q109.63-33.28 108.16-30.14L108.16-30.14L108.16-30.14Q106.69-27.01 105.28-24.32L105.28-24.32L108.35-24.32L108.35-24.32Q108.67-24.32 108.77-23.97L108.77-23.97L108.77-23.97Q108.86-23.62 108.70-23.26L108.70-23.26L108.70-23.26Q108.54-22.91 108.22-22.91L108.22-22.91L104.51-22.91L104.51-22.91Q100.99-16.96 96.00-12.35L96.00-12.35L94.53-5.82L94.53-5.82Q94.34-4.99 94.34-4.19L94.34-4.19L94.34-4.19Q94.34-3.39 94.78-2.56L94.78-2.56L94.78-2.56Q95.23-1.73 96.19-1.73L96.19-1.73L96.19-1.73Q97.28-1.73 98.62-2.50L98.62-2.50L98.62-2.50Q101.70-4.80 105.41-12.16L105.41-12.16L105.41-12.16Q105.66-12.74 106.02-12.86L106.02-12.86L106.02-12.86Q106.37-12.99 106.43-12.70L106.43-12.70L106.43-12.70Q106.50-12.42 106.24-11.78L106.24-11.78L106.24-11.78Q104.13-7.36 102.91-5.50L102.91-5.50L102.91-5.50Q99.46 0.06 95.55 0.06L95.55 0.06L95.55 0.06Q93.57 0.06 92.29-1.41L92.29-1.41L92.29-1.41Q91.01-2.88 91.01-5.12ZM100.67-24.32L103.87-24.32L103.87-24.32Q108.10-31.87 108.10-34.82L108.10-34.82L108.10-34.82Q108.10-36.10 107.65-36.10L107.65-36.10L107.65-36.10Q106.94-36.10 105.50-34.05L105.50-34.05L105.50-34.05Q104.06-32 100.67-24.32L100.67-24.32ZM103.04-22.91L103.04-22.91L100.03-22.91L100.03-22.91Q99.26-21.12 96.58-14.40L96.58-14.40L96.58-14.40Q100.03-17.98 103.04-22.91ZM117.06-22.40L117.06-22.40L117.06-22.40Q121.73-22.40 121.73-16.51L121.73-16.51L121.73-16.51Q121.73-13.82 120.32-10.75L120.32-10.75L120.32-10.75Q118.53-6.59 114.94-3.20L114.94-3.20L114.94-3.20Q115.78-1.60 117.95-1.60L117.95-1.60L117.95-1.60Q119.68-1.60 121.22-3.33L121.22-3.33L121.22-3.33Q123.14-5.31 123.97-6.82L123.97-6.82L123.97-6.82Q124.80-8.32 125.18-9.02L125.18-9.02L125.18-9.02Q125.57-9.73 126.18-11.04L126.18-11.04L126.18-11.04Q126.78-12.35 126.91-12.64L126.91-12.64L126.91-12.64Q127.04-12.93 127.36-12.93L127.36-12.93L127.36-12.93Q128-12.99 128-12.48L128-12.48L128-12.48Q128-12.29 127.87-12.03L127.87-12.03L127.49-11.14L127.49-11.14Q127.10-10.24 126.91-9.86L126.91-9.86L126.91-9.86Q126.72-9.47 126.24-8.48L126.24-8.48L126.24-8.48Q125.76-7.49 125.41-6.91L125.41-6.91L125.41-6.91Q125.06-6.34 124.45-5.38L124.45-5.38L124.45-5.38Q123.84-4.42 123.36-3.84L123.36-3.84L123.36-3.84Q122.88-3.26 122.18-2.56L122.18-2.56L122.18-2.56Q121.47-1.86 120.83-1.47L120.83-1.47L120.83-1.47Q119.23-0.51 117.82-0.51L117.82-0.51L117.82-0.51Q115.20-0.51 113.73-2.18L113.73-2.18L113.73-2.18Q110.78 0 108.29 0L108.29 0L108.29 0Q103.62 0 103.62-5.89L103.62-5.89L103.62-5.89Q103.62-8.58 105.02-11.65L105.02-11.65L105.02-11.65Q106.94-16.13 110.43-19.26L110.43-19.26L110.43-19.26Q113.92-22.40 117.06-22.40ZM117.76-20.42L117.76-20.42L117.76-20.42Q116.03-20.42 113.66-18.11L113.66-18.11L113.66-18.11Q111.30-15.81 109.44-11.84L109.44-11.84L109.44-11.84Q107.20-7.23 107.20-4.29L107.20-4.29L107.20-4.29Q107.20-1.34 109.44-1.34L109.44-1.34L109.44-1.34Q111.04-1.34 113.02-3.07L113.02-3.07L113.02-3.07Q112-4.54 112-6.21L112-6.21L112-6.21Q112.13-8.96 114.24-8.96L114.24-8.96L114.24-8.96Q115.07-8.96 115.62-8.38L115.62-8.38L115.62-8.38Q116.16-7.81 116.16-7.33L116.16-7.33L116.16-7.33Q116.16-6.85 116.03-6.34L116.03-6.34L116.03-6.34Q117.12-7.94 118.53-10.88L118.53-10.88L118.53-10.88Q120.13-14.14 120.13-17.28L120.13-17.28L120.13-17.28Q120.13-20.42 117.76-20.42ZM122.43 20.22L122.43 20.22L122.43 20.22Q116.42 20.22 116.42 15.30L116.42 15.30L116.42 15.30Q116.42 11.20 121.98 7.94L121.98 7.94L121.98 7.94Q126.72 5.18 134.08 2.75L134.08 2.75L134.08 2.75Q137.47 1.66 139.01 1.02L139.01 1.02L139.01 1.02Q140.67-3.84 140.67-9.60L140.67-9.60L140.67-9.60Q140.67-10.75 140.54-11.33L140.54-11.33L140.54-11.33Q138.75-7.68 135.62-3.84L135.62-3.84L135.62-3.84Q131.90 0.77 128.26-0.26L128.26-0.26L128.26-0.26Q124.93-1.66 124.93-5.76L124.93-5.76L124.93-5.76Q124.93-11.26 130.43-17.86L130.43-17.86L130.43-17.86Q133.44-21.44 137.47-22.40L137.47-22.40L137.47-22.40Q138.56-22.72 139.65-22.72L139.65-22.72L139.65-22.72Q142.53-22.72 145.28-20.80L145.28-20.80L145.28-20.80Q146.30-19.97 146.30-19.39L146.30-19.39L146.30-19.39Q146.30-18.82 145.92-18.27L145.92-18.27L145.92-18.27Q145.54-17.73 145.12-18.14L145.12-18.14L145.12-18.14Q144.70-18.56 144.58-18.94L144.58-18.94L144.58-18.94Q143.74-21.31 141.89-21.31L141.89-21.31L141.89-21.31Q138.50-21.31 134.27-16.58L134.27-16.58L134.27-16.58Q131.90-13.89 130.18-10.82L130.18-10.82L130.18-10.82Q128.06-6.98 128.06-4.90L128.06-4.90L128.06-4.90Q128.06-2.82 129.34-2.11L129.34-2.11L129.34-2.11Q129.79-1.92 130.24-1.92L130.24-1.92L130.24-1.92Q131.71-1.92 133.92-3.94L133.92-3.94L133.92-3.94Q136.13-5.95 138.02-9.06L138.02-9.06L138.02-9.06Q139.90-12.16 140.42-13.89L140.42-13.89L140.42-13.89Q140.93-15.62 141.66-16.06L141.66-16.06L141.66-16.06Q142.40-16.51 143.30-16.58L143.30-16.58L143.30-16.58Q144.19-16.64 144.51-16.90L144.51-16.90L144.51-16.90Q145.02-14.02 145.02-10.14L145.02-10.14L145.02-10.14Q145.02-6.27 143.68-1.34L143.68-1.34L143.68-1.34Q146.62-3.46 147.87-5.12L147.87-5.12L147.87-5.12Q149.12-6.78 149.86-8.13L149.86-8.13L149.86-8.13Q150.59-9.47 151.17-10.78L151.17-10.78L151.17-10.78Q151.74-12.10 151.94-12.48L151.94-12.48L151.94-12.48Q152.13-12.86 152.58-12.96L152.58-12.96L152.58-12.96Q153.02-13.06 153.02-12.54L153.02-12.54L153.02-12.54Q153.02-12.22 152.83-11.78L152.83-11.78L152.83-11.78Q150.02-5.95 148.13-3.36L148.13-3.36L148.13-3.36Q146.24-0.77 142.98 0.77L142.98 0.77L142.98 0.77Q141.44 5.12 138.53 9.41L138.53 9.41L138.53 9.41Q135.62 13.70 131.20 16.96L131.20 16.96L131.20 16.96Q126.78 20.22 122.43 20.22ZM117.76 16.51L117.76 16.51L117.76 16.51Q117.76 18.94 120.90 18.94L120.90 18.94L120.90 18.94Q122.75 18.94 125.09 17.86L125.09 17.86L125.09 17.86Q127.42 16.77 128.96 15.62L128.96 15.62L128.96 15.62Q131.58 13.50 134.72 9.34L134.72 9.34L134.72 9.34Q137.09 6.02 138.37 2.88L138.37 2.88L136.13 3.65L136.13 3.65Q126.14 7.10 122.05 9.79L122.05 9.79L122.05 9.79Q119.04 11.78 118.08 14.85L118.08 14.85L118.08 14.85Q117.76 15.81 117.76 16.51ZM154.75-9.86L154.75-9.86L154.75-9.86Q153.86-7.68 153.86-4.99L153.86-4.99L153.86-4.99Q153.86-3.20 154.66-2.14L154.66-2.14L154.66-2.14Q155.46-1.09 156.93-1.09L156.93-1.09L156.93-1.09Q162.75-1.09 167.49-12.03L167.49-12.03L167.49-12.03Q167.94-13.06 168.58-12.93L168.58-12.93L168.58-12.93Q168.83-12.86 168.83-12.61L168.83-12.61L168.83-12.61Q168.83-12.35 167.39-9.25L167.39-9.25L167.39-9.25Q165.95-6.14 164.48-4.22L164.48-4.22L164.48-4.22Q161.22 0.26 156.42 0.26L156.42 0.26L156.42 0.26Q153.86 0.26 152.06-1.41L152.06-1.41L152.06-1.41Q150.27-3.07 150.27-5.95L150.27-5.95L150.27-5.95Q150.27-8.83 151.65-12.06L151.65-12.06L151.65-12.06Q153.02-15.30 155.39-18.08L155.39-18.08L155.39-18.08Q157.76-20.86 160.83-22.14L160.83-22.14L160.83-22.14Q162.30-22.78 163.65-22.78L163.65-22.78L163.65-22.78Q164.99-22.78 166.14-22.02L166.14-22.02L166.14-22.02Q167.23-21.12 167.23-20.03L167.23-20.03L167.23-20.03Q167.23-16.19 162.62-12.67L162.62-12.67L162.62-12.67Q161.22-11.58 158.66-10.72L158.66-10.72L158.66-10.72Q156.10-9.86 154.75-9.86ZM165.50-20.10L165.50-20.10L165.50-20.10Q165.50-21.38 164.48-21.38L164.48-21.38L164.48-21.38Q162.69-21.38 159.04-16.96L159.04-16.96L159.04-16.96Q156.86-14.27 155.20-10.94L155.20-10.94L155.20-10.94Q156.29-10.94 158.37-11.71L158.37-11.71L158.37-11.71Q160.45-12.48 161.98-13.76L161.98-13.76L161.98-13.76Q165.50-16.77 165.50-20.10ZM187.01-20.99L187.01-20.99L187.01-20.99Q179.14-7.17 179.14-2.94L179.14-2.94L179.14-2.94Q179.14-1.28 180.35-1.28L180.35-1.28L180.35-1.28Q183.62-1.28 189.12-12.35L189.12-12.35L189.12-12.35Q189.50-13.25 189.89-13.06L189.89-13.06L189.89-13.06Q190.27-12.86 190.27-12.54L190.27-12.54L190.27-12.54Q190.27-12.22 190.02-11.78L190.02-11.78L190.02-11.78Q186.62-4.93 184.29-2.34L184.29-2.34L184.29-2.34Q181.95 0.26 179.62 0.26L179.62 0.26L179.62 0.26Q177.28 0.26 176.06-1.54L176.06-1.54L176.06-1.54Q175.42-2.37 175.42-3.81L175.42-3.81L175.42-3.81Q175.42-5.25 176.06-7.30L176.06-7.30L176.06-7.30Q176.70-9.34 179.58-13.95L179.58-13.95L179.58-13.95Q180.29-15.10 180.29-15.78L180.29-15.78L180.29-15.78Q180.29-16.45 179.20-16.45L179.20-16.45L179.20-16.45Q178.11-16.45 175.04-13.57L175.04-13.57L175.04-13.57Q170.43-9.34 166.14-0.90L166.14-0.90L166.14-0.90Q165.76-0.26 165.28-0.10L165.28-0.10L165.28-0.10Q164.80 0.06 163.39 0.13L163.39 0.13L163.39 0.13Q161.98 0.19 161.54 0.45L161.54 0.45L161.54 0.45Q162.56-1.60 165.57-7.94L165.57-7.94L165.57-7.94Q170.94-19.14 172.61-20.74L172.61-20.74L172.61-20.74Q173.38-21.50 174.72-21.50L174.72-21.50L174.72-21.50Q174.98-21.50 176.03-21.31L176.03-21.31L176.03-21.31Q177.09-21.12 177.60-21.25L177.60-21.25L177.60-21.25Q175.23-19.97 169.86-9.22L169.86-9.22L169.86-9.22Q172.86-12.93 175.33-15.14L175.33-15.14L175.33-15.14Q177.79-17.34 181.25-19.23L181.25-19.23L181.25-19.23Q184.70-21.12 186.30-21.12L186.30-21.12L186.30-21.12Q186.69-21.12 187.01-20.99ZM222.14-17.28L222.14-17.28L222.14-17.28Q222.14-19.01 220.42-19.01L220.42-19.01L220.42-19.01Q217.86-19.01 214.50-16.10L214.50-16.10L214.50-16.10Q211.14-13.18 208.90-9.98L208.90-9.98L208.90-9.98Q207.94-8.13 207.33-5.31L207.33-5.31L207.33-5.31Q206.72-2.50 206.72-1.41L206.72-1.41L206.72-1.41Q206.72-0.32 207.10 0L207.10 0L203.07 0L203.07 0Q202.11 0 202.59-1.70L202.59-1.70L202.59-1.70Q203.07-3.39 203.90-5.38L203.90-5.38L203.90-5.38Q204.74-7.36 205.98-9.95L205.98-9.95L205.98-9.95Q207.23-12.54 207.81-13.89L207.81-13.89L207.81-13.89Q202.56-3.97 201.02-2.50L201.02-2.50L201.02-2.50Q200.38-1.92 200.38-2.88L200.38-2.88L200.38-2.88Q200.38-3.07 200.51-3.33L200.51-3.33L200.51-3.33Q202.75-6.27 209.44-19.33L209.44-19.33L209.44-19.33Q216.13-32.38 218.82-36.42L218.82-36.42L218.82-36.42Q220.99-39.55 223.04-39.55L223.04-39.55L223.04-39.55Q223.04-39.55 223.10-39.55L223.10-39.55L223.42-39.55L223.42-39.55Q223.49-39.55 224.54-39.36L224.54-39.36L224.54-39.36Q225.60-39.17 226.11-39.30L226.11-39.30L226.11-39.30Q223.74-37.50 219.58-31.07L219.58-31.07L219.58-31.07Q215.42-24.64 212.99-19.81L212.99-19.81L212.99-19.81Q210.56-14.98 209.73-12.48L209.73-12.48L209.73-12.48Q215.55-19.71 220.16-21.44L220.16-21.44L220.16-21.44Q222.34-22.14 223.62-22.14L223.62-22.14L223.62-22.14Q226.43-22.14 226.43-19.78L226.43-19.78L226.43-19.78Q226.43-19.01 226.11-18.05L226.11-18.05L226.11-18.05Q225.22-15.62 222.43-13.66L222.43-13.66L222.43-13.66Q219.65-11.71 216.32-11.39L216.32-11.39L216.32-11.39Q215.55-9.60 215.55-8.10L215.55-8.10L215.55-8.10Q215.55-6.59 215.87-5.38L215.87-5.38L215.87-5.38Q216.64-2.30 218.75-1.60L218.75-1.60L218.75-1.60Q219.20-1.47 219.65-1.47L219.65-1.47L219.65-1.47Q221.44-1.47 223.87-3.71L223.87-3.71L223.87-3.71Q225.86-5.89 229.06-12.48L229.06-12.48L229.06-12.48Q229.50-13.31 229.76-13.02L229.76-13.02L229.76-13.02Q230.02-12.74 230.02-12.48L230.02-12.48L230.02-12.48Q230.02-12.22 229.06-9.98L229.06-9.98L229.06-9.98Q228.10-7.74 226.37-5.06L226.37-5.06L226.37-5.06Q222.72 0.45 218.30 0.45L218.30 0.45L218.30 0.45Q215.62 0.45 214.14-1.09L214.14-1.09L214.14-1.09Q212.03-3.26 212.03-6.78L212.03-6.78L212.03-6.78Q212.03-8.58 212.99-10.43L212.99-10.43L212.99-10.43Q213.95-12.29 215.23-12.42L215.23-12.42L215.23-12.42Q215.42-12.42 215.62-12.42L215.62-12.42L215.62-12.42Q217.86-12.42 220-14.14L220-14.14L220-14.14Q222.14-15.87 222.14-17.28ZM240.58-22.40L240.58-22.40L240.58-22.40Q245.25-22.40 245.25-16.51L245.25-16.51L245.25-16.51Q245.25-13.82 243.84-10.75L243.84-10.75L243.84-10.75Q242.05-6.59 238.46-3.20L238.46-3.20L238.46-3.20Q239.30-1.60 241.47-1.60L241.47-1.60L241.47-1.60Q243.20-1.60 244.74-3.33L244.74-3.33L244.74-3.33Q246.66-5.31 247.49-6.82L247.49-6.82L247.49-6.82Q248.32-8.32 248.70-9.02L248.70-9.02L248.70-9.02Q249.09-9.73 249.70-11.04L249.70-11.04L249.70-11.04Q250.30-12.35 250.43-12.64L250.43-12.64L250.43-12.64Q250.56-12.93 250.88-12.93L250.88-12.93L250.88-12.93Q251.52-12.99 251.52-12.48L251.52-12.48L251.52-12.48Q251.52-12.29 251.39-12.03L251.39-12.03L251.01-11.14L251.01-11.14Q250.62-10.24 250.43-9.86L250.43-9.86L250.43-9.86Q250.24-9.47 249.76-8.48L249.76-8.48L249.76-8.48Q249.28-7.49 248.93-6.91L248.93-6.91L248.93-6.91Q248.58-6.34 247.97-5.38L247.97-5.38L247.97-5.38Q247.36-4.42 246.88-3.84L246.88-3.84L246.88-3.84Q246.40-3.26 245.70-2.56L245.70-2.56L245.70-2.56Q244.99-1.86 244.35-1.47L244.35-1.47L244.35-1.47Q242.75-0.51 241.34-0.51L241.34-0.51L241.34-0.51Q238.72-0.51 237.25-2.18L237.25-2.18L237.25-2.18Q234.30 0 231.81 0L231.81 0L231.81 0Q227.14 0 227.14-5.89L227.14-5.89L227.14-5.89Q227.14-8.58 228.54-11.65L228.54-11.65L228.54-11.65Q230.46-16.13 233.95-19.26L233.95-19.26L233.95-19.26Q237.44-22.40 240.58-22.40ZM241.28-20.42L241.28-20.42L241.28-20.42Q239.55-20.42 237.18-18.11L237.18-18.11L237.18-18.11Q234.82-15.81 232.96-11.84L232.96-11.84L232.96-11.84Q230.72-7.23 230.72-4.29L230.72-4.29L230.72-4.29Q230.72-1.34 232.96-1.34L232.96-1.34L232.96-1.34Q234.56-1.34 236.54-3.07L236.54-3.07L236.54-3.07Q235.52-4.54 235.52-6.21L235.52-6.21L235.52-6.21Q235.65-8.96 237.76-8.96L237.76-8.96L237.76-8.96Q238.59-8.96 239.14-8.38L239.14-8.38L239.14-8.38Q239.68-7.81 239.68-7.33L239.68-7.33L239.68-7.33Q239.68-6.85 239.55-6.34L239.55-6.34L239.55-6.34Q240.64-7.94 242.05-10.88L242.05-10.88L242.05-10.88Q243.65-14.14 243.65-17.28L243.65-17.28L243.65-17.28Q243.65-20.42 241.28-20.42ZM255.81-1.22L255.81-1.22L255.81-1.22Q256.64-1.09 256.96-1.09L256.96-1.09L256.96-1.09Q259.52-1.09 262.02-4.10L262.02-4.10L262.02-4.10Q263.36-5.76 266.82-12.48L266.82-12.48L266.82-12.48Q266.94-12.80 267.26-12.80L267.26-12.80L267.26-12.80Q267.84-12.86 267.84-12.35L267.84-12.35L267.84-12.35Q267.84-12.22 267.55-11.62L267.55-11.62L267.55-11.62Q267.26-11.01 267.01-10.40L267.01-10.40L267.01-10.40Q266.75-9.79 266.18-8.64L266.18-8.64L266.18-8.64Q265.60-7.49 265.18-6.78L265.18-6.78L265.18-6.78Q264.77-6.08 264.13-5.06L264.13-5.06L264.13-5.06Q263.49-4.03 262.85-3.46L262.85-3.46L261.50-2.05L261.50-2.05Q260.42-0.96 258.94-0.51L258.94-0.51L258.94-0.51Q256.58 0.26 254.34-0.38L254.34-0.38L254.34-0.38Q252.86 0.26 251.71 0.26L251.71 0.26L251.71 0.26Q247.17 0.26 246.21-3.33L246.21-3.33L246.21-3.33Q246.02-4.16 246.02-5.34L246.02-5.34L246.02-5.34Q246.02-6.53 246.82-7.62L246.82-7.62L246.82-7.62Q247.62-8.70 248.51-8.77L248.51-8.77L248.51-8.77Q251.78-14.98 254.08-19.97L254.08-19.97L254.08-19.97Q256.64-25.41 260.03-25.41L260.03-25.41L260.03-25.41Q260.93-25.41 261.79-24.99L261.79-24.99L261.79-24.99Q262.66-24.58 262.43-24.06L262.43-24.06L262.43-24.06Q262.21-23.55 261.50-23.87L261.50-23.87L261.50-23.87Q260.80-24.19 260.29-24.19L260.29-24.19L260.29-24.19Q259.78-24.19 259.39-24L259.39-24L259.39-24Q257.22-22.98 257.22-19.58L257.22-19.58L257.22-19.58Q257.22-17.79 257.73-16.64L257.73-16.64L257.73-16.64Q258.24-15.49 258.88-14.14L258.88-14.14L258.88-14.14Q260.35-10.82 260.35-8.70L260.35-8.70L260.35-8.70Q260.35-6.59 259.01-4.54L259.01-4.54L259.01-4.54Q257.66-2.50 255.81-1.22ZM253.63-1.66L253.63-1.66L253.63-1.66Q256.45-3.84 256.45-8.70L256.45-8.70L256.45-8.70Q256.45-10.69 256-14.14L256-14.14L256-14.14Q255.55-17.60 255.55-18.82L255.55-18.82L255.55-18.82Q255.55-20.03 255.62-20.48L255.62-20.48L255.62-20.48Q250.75-10.75 249.60-8.64L249.60-8.64L249.60-8.64Q250.94-8.64 250.94-6.72L250.94-6.72L250.94-6.72Q250.94-2.94 253.63-1.66ZM248.83-3.39L248.83-3.39L248.83-3.39Q248.83-3.01 248.90-2.56L248.90-2.56L248.90-2.56Q249.41-0.83 251.26-0.83L251.26-0.83L251.26-0.83Q252.03-0.83 252.54-1.09L252.54-1.09L252.54-1.09Q250.18-2.56 249.98-5.89L249.98-5.89L249.98-5.89Q248.83-4.74 248.83-3.39ZM265.15-5.12L265.15-5.12L265.15-5.12Q265.15-10.43 270.27-22.91L270.27-22.91L266.94-22.91L266.94-22.91Q266.62-22.91 266.53-23.26L266.53-23.26L266.53-23.26Q266.43-23.62 266.59-23.97L266.59-23.97L266.59-23.97Q266.75-24.32 267.07-24.32L267.07-24.32L270.91-24.32L270.91-24.32Q273.22-29.38 275.20-32.77L275.20-32.77L275.20-32.77Q277.18-36.16 278.85-37.34L278.85-37.34L278.85-37.34Q280.51-38.53 281.25-38.53L281.25-38.53L281.25-38.53Q281.98-38.53 282.30-38.40L282.30-38.40L282.30-38.40Q283.78-37.70 283.78-35.49L283.78-35.49L283.78-35.49Q283.78-33.28 282.30-30.14L282.30-30.14L282.30-30.14Q280.83-27.01 279.42-24.32L279.42-24.32L282.50-24.32L282.50-24.32Q282.82-24.32 282.91-23.97L282.91-23.97L282.91-23.97Q283.01-23.62 282.85-23.26L282.85-23.26L282.85-23.26Q282.69-22.91 282.37-22.91L282.37-22.91L278.66-22.91L278.66-22.91Q275.14-16.96 270.14-12.35L270.14-12.35L268.67-5.82L268.67-5.82Q268.48-4.99 268.48-4.19L268.48-4.19L268.48-4.19Q268.48-3.39 268.93-2.56L268.93-2.56L268.93-2.56Q269.38-1.73 270.34-1.73L270.34-1.73L270.34-1.73Q271.42-1.73 272.77-2.50L272.77-2.50L272.77-2.50Q275.84-4.80 279.55-12.16L279.55-12.16L279.55-12.16Q279.81-12.74 280.16-12.86L280.16-12.86L280.16-12.86Q280.51-12.99 280.58-12.70L280.58-12.70L280.58-12.70Q280.64-12.42 280.38-11.78L280.38-11.78L280.38-11.78Q278.27-7.36 277.06-5.50L277.06-5.50L277.06-5.50Q273.60 0.06 269.70 0.06L269.70 0.06L269.70 0.06Q267.71 0.06 266.43-1.41L266.43-1.41L266.43-1.41Q265.15-2.88 265.15-5.12ZM274.82-24.32L278.02-24.32L278.02-24.32Q282.24-31.87 282.24-34.82L282.24-34.82L282.24-34.82Q282.24-36.10 281.79-36.10L281.79-36.10L281.79-36.10Q281.09-36.10 279.65-34.05L279.65-34.05L279.65-34.05Q278.21-32 274.82-24.32L274.82-24.32ZM277.18-22.91L277.18-22.91L274.18-22.91L274.18-22.91Q273.41-21.12 270.72-14.40L270.72-14.40L270.72-14.40Q274.18-17.98 277.18-22.91Z" fill="url(#editing-outline-gradient)"></path></g></g><style>text {
  font-size: 64px;
  font-family: Arial Black;
  dominant-baseline: central;
  text-anchor: middle;
}</style></svg>